<svg xmlns="http://www.w3.org/2000/svg" viewBox="0 0 201.12 46.25"><g id="Layer_2" data-name="Layer 2"><g id="Layer_1-2" data-name="Layer 1"><path d="M65.64,28.68v7.19H61.71l0-20.32h3.91V17.5c.35-.29.68-.56,1-.84a5.88,5.88,0,0,1,8,.35A9,9,0,0,1,74.8,29.2,5.85,5.85,0,0,1,66,29,3.29,3.29,0,0,0,65.64,28.68Zm7.47-5.61c0-.19,0-.51-.1-.82a4,4,0,0,0-2.93-3.19,3.5,3.5,0,0,0-3.75,1.68,4.57,4.57,0,0,0,.54,5.56,3.39,3.39,0,0,0,5-.05A4.57,4.57,0,0,0,73.11,23.07Z"/><path d="M201.12,31.09h-3.93V28.86a14.3,14.3,0,0,1-1,1.09,5.76,5.76,0,0,1-7.18.32c-4.24-3-4.4-10.3-.28-13.48a5.76,5.76,0,0,1,8.17.84l.26.28V10.74h4Zm-11.46-7.66c.08.45.11.91.23,1.34a3.91,3.91,0,0,0,3.32,2.88,3.64,3.64,0,0,0,3.45-2.17,4.37,4.37,0,0,0-.38-4.73,3.4,3.4,0,0,0-5.45-.34A4.53,4.53,0,0,0,189.66,23.43Z"/><path d="M127,10.37h3.91l0,7.19c.34-.38.57-.66.82-.91a5.42,5.42,0,0,1,5.67-1.24,5.15,5.15,0,0,1,3.71,4,10.55,10.55,0,0,1,.27,2.24c0,2.86,0,5.72,0,8.58,0,.13,0,.27,0,.44h-4V30q0-3.73,0-7.48V22.2c0-2.18-1-3.36-2.93-3.36A3.41,3.41,0,0,0,131,22.28c0,2.61,0,5.21,0,7.82,0,.2,0,.4,0,.63h-4Z"/><path d="M173.65,31.15c-1.06,0-2.18,0-3.3,0a.7.7,0,0,1-.48-.41c-.17-.59-.27-1.2-.4-1.83-.46.42-.88.85-1.36,1.22a6.49,6.49,0,0,1-7.22.39,4.62,4.62,0,0,1-2-4.48,3.83,3.83,0,0,1,2.93-3.51,30.35,30.35,0,0,1,4.57-.81,25,25,0,0,1,2.87,0,2.46,2.46,0,0,0-1.93-2.8,3.27,3.27,0,0,0-4,1.62.61.61,0,0,1-.44.22c-1.14,0-2.28,0-3.51,0a5.75,5.75,0,0,1,2.52-4,8.31,8.31,0,0,1,5.2-1.18,7.14,7.14,0,0,1,3.7,1.1,5.55,5.55,0,0,1,2.36,4.43c.14,2.19.09,4.39.17,6.58C173.4,28.8,173.54,29.93,173.65,31.15Zm-4.33-6.82c-.41,0-.78-.11-1.14-.11a9.27,9.27,0,0,0-4.23.65,1.64,1.64,0,0,0-1,1.88,1.75,1.75,0,0,0,1.71,1.4A4.39,4.39,0,0,0,169.32,24.33Z"/><path d="M109.39,30.77h-4V30c0-2.52-.07-5,0-7.55.08-2.89-1.41-3.53-2.9-3.58a3.46,3.46,0,0,0-3.58,3.67c0,2.47,0,4.94,0,7.41v.79H95L95,15.5h3.92v2.15c.26-.28.39-.42.51-.57a5.38,5.38,0,0,1,6-1.62A5.26,5.26,0,0,1,109.22,20a14.54,14.54,0,0,1,.15,2c0,2.7,0,5.4,0,8.1Z"/><path d="M78.22,15.52h3.9v.75c0,2.47,0,4.94,0,7.41,0,.25,0,.5,0,.75.17,1.95,1.22,3,3,3a3.31,3.31,0,0,0,3.43-3.14c.07-2.63,0-5.26,0-7.89v-.85h3.94l0,15.29H88.64V28.7l-1.08,1.11c-2.46,2.42-8.28,1.54-9.17-3.24A10.36,10.36,0,0,1,78.21,25c0-3.09,0-6.18-.06-9.26A1,1,0,0,1,78.22,15.52Z"/><path d="M125.92,24.32A7.25,7.25,0,0,1,122.4,30C118.71,32.2,112,31.09,110.69,25c-.86-4,.84-8.57,5.9-9.65,4.5-1,8.34,1.45,9.23,5.86,0,.19.05.39.08.65-1.23,0-2.4,0-3.57,0a.56.56,0,0,1-.41-.32,3.55,3.55,0,0,0-4-2.6,4,4,0,0,0-3.47,3.82,4,4,0,0,0,3.43,4.53,3.48,3.48,0,0,0,4-2.43c.13-.43.3-.53.7-.52C123.66,24.34,124.75,24.33,125.92,24.32Z"/><path d="M158.27,22.23h-3.85c-.09-.26-.17-.54-.28-.81a3.77,3.77,0,0,0-6.2-.91,4.61,4.61,0,0,0,.06,6,3.71,3.71,0,0,0,3.84,1.05,3.52,3.52,0,0,0,2.56-2.82h3.88a7.2,7.2,0,0,1-8.34,6.62c-3.95-.52-6.35-2.64-6.94-6.54-.92-6.17,3.65-9.87,8.94-9.19A6.93,6.93,0,0,1,158.27,22.23Z"/><path d="M179.38,15.82v2.83A5.36,5.36,0,0,1,182.13,16a7.06,7.06,0,0,1,3.68-.25V20c-.5-.1-1-.22-1.5-.3a4,4,0,0,0-4.91,4.06c0,2.2,0,4.39,0,6.59v.77h-3.94l0-15.29Z"/><path d="M34.49,11.75A16.07,16.07,0,0,1,39,25.9l6.41-6.41a3,3,0,0,0,0-4.24L31,.88a3,3,0,0,0-4.25,0l-6.4,6.41A16,16,0,0,1,34.49,11.75Z"/><path d="M11.75,34.49A16,16,0,0,1,7.29,20.35L.88,26.75A3,3,0,0,0,.88,31L15.25,45.37a3,3,0,0,0,4.24,0L25.9,39A16.07,16.07,0,0,1,11.75,34.49Z"/></g></g></svg>