<svg xmlns="http://www.w3.org/2000/svg" viewBox="0 0 11.75 16.7"><defs><style>.cls-1,.cls-2{fill:none;stroke:#231f20;stroke-linejoin:round;}.cls-2{stroke-linecap:round;}</style></defs><g id="Layer_2" data-name="Layer 2"><g id="Layer_1-2" data-name="Layer 1"><path class="cls-1" d="M4.22,4.05a3.32,3.32,0,0,1,1.66-.9,3.32,3.32,0,0,1-1.74-.92A3.28,3.28,0,0,1,3.23.5a3.29,3.29,0,0,1-.9,1.65A3.26,3.26,0,0,1,.5,3.08,3.35,3.35,0,0,1,2.36,4a3.31,3.31,0,0,1,.93,1.86A3.35,3.35,0,0,1,4.22,4.05Z"/><path class="cls-2" d="M9.6,9.21a3.29,3.29,0,0,1,1.65-.9A3.32,3.32,0,0,1,9.52,7.4,3.36,3.36,0,0,1,8.6,5.66a3.32,3.32,0,0,1-.9,1.66,3.36,3.36,0,0,1-1.82.93A3.32,3.32,0,0,1,8.67,11,3.26,3.26,0,0,1,9.6,9.21Z"/><path class="cls-1" d="M4.37,14.37A3.2,3.2,0,0,1,6,13.48a3.3,3.3,0,0,1-1.73-.92,3.26,3.26,0,0,1-.92-1.73,3.33,3.33,0,0,1-.9,1.65,3.29,3.29,0,0,1-1.83.93,3.31,3.31,0,0,1,1.86.93,3.42,3.42,0,0,1,.94,1.86A3.26,3.26,0,0,1,4.37,14.37Z"/></g></g></svg>