<svg xmlns="http://www.w3.org/2000/svg" viewBox="0 0 24.54 16.9"><defs><style>.cls-1{fill:none;stroke:#231f20;stroke-linejoin:round;}</style></defs><g id="Layer_2" data-name="Layer 2"><g id="Layer_1-2" data-name="Layer 1"><path class="cls-1" d="M24,7.76V5L21.85,2.66H7.69a3.82,3.82,0,0,1,.38,1.62A3.79,3.79,0,0,1,4.28,8.07a3.73,3.73,0,0,1-1.75-.45V16.4H21.85L24,14.09V11.22a1.73,1.73,0,0,1,0-3.46ZM7,6.89,10.15,10Z"/><path class="cls-1" d="M7.69,2.66a3.78,3.78,0,1,0-5.16,5"/><path class="cls-1" d="M2.53,7.62a3.73,3.73,0,0,0,1.75.45A3.79,3.79,0,0,0,8.07,4.28a3.82,3.82,0,0,0-.38-1.62"/></g></g></svg>