<svg xmlns="http://www.w3.org/2000/svg" viewBox="0 0 15.06 15.06"><defs><style>.cls-1{fill:none;stroke-linejoin:round;}.cls-1,.cls-2{stroke:#231f20;}.cls-2{fill:#231f20;stroke-miterlimit:10;stroke-width:0.25px;}</style></defs><g id="Layer_2" data-name="Layer 2"><g id="Layer_1-2" data-name="Layer 1"><path class="cls-1" d="M12,3.08A6.36,6.36,0,0,1,3.08,12,6.36,6.36,0,1,0,12,3.08Z"/><path class="cls-1" d="M12,3.08A6.36,6.36,0,1,0,3.08,12"/><path class="cls-2" d="M8.57,9.48A2.14,2.14,0,0,1,7.23,10v1.17H6.55V10A1.9,1.9,0,0,1,4.68,8.21l.79-.08a1.4,1.4,0,0,0,.42.94,1.47,1.47,0,0,0,1,.31,1.56,1.56,0,0,0,1-.27.94.94,0,0,0,.33-.77A.83.83,0,0,0,8,7.68a1.66,1.66,0,0,0-.79-.36l-.71-.15a2.49,2.49,0,0,1-1.21-.58,1.4,1.4,0,0,1-.38-1,1.53,1.53,0,0,1,.43-1.13,1.93,1.93,0,0,1,1.23-.51V2.75h.68V3.92A1.68,1.68,0,0,1,8.9,5.52l-.79.08a1.16,1.16,0,0,0-.38-.77,1.34,1.34,0,0,0-.88-.25c-.76,0-1.15.32-1.15,1a.79.79,0,0,0,.22.57,1.94,1.94,0,0,0,.8.35l.69.16a2.32,2.32,0,0,1,1.26.6,1.48,1.48,0,0,1,.38,1A1.67,1.67,0,0,1,8.57,9.48Z"/></g></g></svg>