<svg id="Layer_1" data-name="Layer 1" xmlns="http://www.w3.org/2000/svg" viewBox="0 0 44.18 38.07"><title>arrow-right-dark</title><path d="M-32.73,629.84a1.36,1.36,0,0,1-.21.37,1.91,1.91,0,0,1-.46.48l-16.94,16.94a1.6,1.6,0,0,1-2.24,0l-.58-.58a1.59,1.59,0,0,1,0-2.25l13.73-13.72H-74.75a2,2,0,0,1-2-2,2,2,0,0,1,2-2h35.36l-13.77-13.77a1.58,1.58,0,0,1,0-2.24l.58-.59a1.6,1.6,0,0,1,2.24,0l17.26,17.26a1.61,1.61,0,0,1,.44.83,2.09,2.09,0,0,1,.07.51A1.91,1.91,0,0,1-32.73,629.84Z" transform="translate(76.75 -610.03)" style="fill:#121212"/><path d="M-34.78,627.09Z" transform="translate(76.75 -610.03)" style="fill:#121212"/></svg>