<svg xmlns="http://www.w3.org/2000/svg" viewBox="0 0 2674.8 436.83"><g id="Layer_2" data-name="Layer 2"><g id="Layer_1-2" data-name="Layer 1"><g id="Cmmpac.tif"><path d="M688.67,217.26c.52,9.46,1.53,19.68,1.56,29.91.16,55,.08,110,.07,165.05,0,13.9-2.91,16.81-16.69,16.81q-34.54,0-69.11,0c-10.56,0-14-3.47-14-14.1q0-196.6,0-393.2C590.5,11.48,594,8,604.09,8c29.16,0,58.32.07,87.48-.08,7.89,0,12.63,3.23,15.5,10.69,20.64,53.69,41.65,107.24,62.19,161,3.11,8.14,4.35,17,6.51,25.48a10,10,0,0,0,2.69,5c-.45-9.64-1.28-19.27-1.3-28.91q-.2-78.87-.06-157.72C777.11,10.74,779.91,8,792.6,8h67.64c13.81,0,16.54,2.77,16.57,16.87q0,30.09,0,60.16,0,162.48,0,325a85.57,85.57,0,0,1-.32,8.78c-.7,6.61-4.51,10.21-11.16,10.23q-45.59.11-91.16,0c-7.5,0-11-5-13.33-11.55-13.56-37.34-27.43-74.56-40.93-111.92C709.25,276,699,246.42,688.67,217.26Z"/><path d="M2212,304v8.4q0,50.61,0,101.22c0,12.64-2.92,15.45-15.55,15.46q-39,0-77.91,0c-10.64,0-14.26-3.5-14.26-14q0-196.56,0-393.13c0-10.23,3.59-13.93,13.49-13.94,42.63,0,85.28-.54,127.9.25,30.76.57,59.33,9,83.44,29.27,25,21,37.68,48.53,39.51,80.48a655.12,655.12,0,0,1,0,74c-1.65,29.16-12.47,55.08-34.26,75.46-4,3.77-4.42,6.77-2.64,11.86,15.3,43.69,30.25,87.5,45.29,131.28a41.8,41.8,0,0,1,2.09,7c1.07,6.79-2.13,11.26-9,11.3q-48.15.32-96.29,0c-7.14,0-10.64-4.64-12.39-11.33-8.71-33.48-17.64-66.91-26.47-100.35C2230.64,301.25,2230.06,300.87,2212,304Zm0-100.7c9.65,0,18.19.32,26.7-.08,12.69-.6,21.19-9.52,21.33-22.36q.3-27.08,0-54.15c-.12-11.12-6.84-19-18-20.46-7.46-1-15.11-.49-22.64-1.13-5.78-.49-7.58,1.49-7.5,7.34.31,23.42.13,46.84.13,70.26Z"/><path d="M1316.63,159.6H1371v-8.74q0-62.72,0-125.43C1371,10.08,1373.07,8,1388.14,8q38.22,0,76.45,0c10.55,0,14,3.5,14,14.12q0,196.2,0,392.41c0,11.1-3.37,14.5-14.38,14.51q-38.6,0-77.19,0c-13.23,0-16-2.68-16-15.69q0-72.25,0-144.5v-9.29h-54.35v8.12q0,72.24,0,144.5c0,14-2.89,16.86-16.64,16.86q-37.49,0-75,0c-13.75,0-16.59-2.88-16.61-16.89q0-30.08,0-60.15,0-162.46,0-324.94a70,70,0,0,1,.43-9.5c.86-6.25,4.7-9.52,11-9.54q42.63-.07,85.27,0c6.73,0,10.36,3.73,11.25,10.18a52.42,52.42,0,0,1,.27,7.32q0,62.7,0,125.42Z"/><path d="M2405.1,218.11q0-96.45,0-192.9c0-15.12,2.18-17.25,17.42-17.24,40.18,0,80.37-.42,120.54.23,28.28.46,55.25,6.87,79.16,22.94,31.2,21,46.42,51.34,50.8,87.65,1.48,12.31,1.53,24.85,1.57,37.29.15,48.16.44,96.33-.13,144.48-.37,31.27-8.61,60.44-29.28,84.79-22.24,26.2-51.83,40.06-85.33,41.72-47.65,2.36-95.47,1.52-143.22,1.88-7.66.06-10.9-3.55-11.41-11.35-.18-2.68-.12-5.38-.12-8.07Zm108.26-113.4V331.54c8.26,0,16.09.54,23.82-.11,18.56-1.56,27.08-9.92,27.25-28.66.5-55,.31-110,.37-165a68.76,68.76,0,0,0-.43-7.31c-1.35-12.94-8.71-22.51-19.95-24C2534.34,105.15,2524.06,105.26,2513.36,104.71Z"/><path d="M288,171.17q0-73,0-146C288,10.64,290.65,8,305,8H379.2c14.56,0,17.2,2.59,17.2,16.89q0,138.27.06,276.53a79.72,79.72,0,0,0,1.39,16c3,14.32,12.3,21.36,26.62,20.72,12.89-.58,21.92-9.61,23.37-23.76a157.43,157.43,0,0,0,.65-16.11q0-135.69,0-271.39a88.62,88.62,0,0,1,.48-9.5c.67-6.1,4.49-9.23,10.36-9.26q43.36-.2,86.73,0c6.28,0,9.78,3.91,10.52,10.1a43.85,43.85,0,0,1,.07,5.13q0,139.37,0,278.73c0,24.47-3.85,48.2-15,70.19-16.69,32.91-44,52.24-79.79,59.85-38.12,8.12-75.53,6.44-110.86-11.36-33.13-16.69-51.66-44.87-58.73-80.48a240.73,240.73,0,0,1-4.13-43.65C287.66,254.79,288,213,288,171.17Z"/><path d="M1962.41,367.66h-57c-1.91,15.12-4,30-5.61,45-1.42,13.36-4.42,16.35-18,16.35q-38.58,0-77.17,0c-11.14,0-14.55-4.16-12.61-14.93q27.51-152.94,55-305.88,8-44.25,16.07-88.49C1864.65,11.37,1868.6,8,1877.26,8q59.54-.09,119.06,0c8.79,0,12.29,2.77,13.91,11.76,6.44,35.49,12.68,71,19,106.55q15,85.35,30,170.7,10.48,59.42,21,118.81c1.39,7.95-2.61,13.08-10.67,13.13q-44.46.26-88.93,0c-6.78,0-11-3.6-11.9-10.5C1966.64,401.79,1964.59,385.1,1962.41,367.66Zm-10.15-82.73c-5.93-57.41-11.81-114.41-17.61-170.57q-9.12,84.36-18.44,170.57Z"/><path d="M108.12,311.44c0,28,0,54.86,0,81.72,0,7.82.19,15.64-.07,23.46-.29,8.43-4,12.31-12.18,12.35q-41.9.19-83.77,0c-7.76,0-11-3.26-11.87-11A72.12,72.12,0,0,1,0,409.89Q0,218.52,0,27.14a91.44,91.44,0,0,1,.42-9.51C1.13,11.24,5,8,11.28,8c45.07,0,90.18-1,135.2.51,34,1.14,64.58,12.79,88.44,38.47,16.17,17.39,26,38.16,28.46,61.41,3.72,34.78,4.82,69.9-.7,104.53-8.43,52.88-46.19,88.55-99.56,95.81-12.09,1.64-24.37,1.95-36.57,2.63C120.73,311.71,114.88,311.44,108.12,311.44Zm.28-97.87c9.7,0,18.74.55,27.69-.14,10.91-.82,19-8.64,19.25-19.5.56-23.17.48-46.37.07-69.55-.15-9-6.18-16.35-14.86-17.65-10.48-1.57-21.21-1.43-32.15-2Z"/><path d="M1510.24,217c0-34.69-.17-69.47,1.73-104,3.29-59.56,47.29-104,106.77-111.06,30.31-3.59,60.08-2.73,88.77,8.82,42.18,17,64.56,49.26,70,93.37,2.12,17.37,1.41,35.1,1.67,52.67.13,8.63-3.91,12.68-12.48,12.72q-40.79.19-81.58,0c-8.73,0-11.72-3.25-11.94-12.07-.34-12.93,0-25.92-1.05-38.79-1-11.58-8-18.29-18.28-19.82-14.09-2.09-24.41,2-29.13,12.79a45.56,45.56,0,0,0-4.1,17.58q-.45,89.1-.08,178.19c.1,22.52,15.2,35,34.89,29.92,9.62-2.47,15.71-8.47,16.5-18.2,1-12.63.95-25.36,1.2-38.05.22-11.49,3.23-14.62,15-14.65q37.85-.11,75.69,0c11.49,0,15.81,4.09,15.37,15.44-.8,20.7.22,41.84-3.73,62-9.58,48.88-40.92,77.91-89.34,88.49-33.45,7.31-66.69,6-98.84-6.33-42.93-16.44-66.59-48.79-74-93.3-2-12.23-2.6-24.79-2.8-37.21-.4-26.15-.12-52.31-.12-78.46Z"/><path d="M909.8,218c0-34.21-.14-68.48,1.51-102.61,3-61.34,46.37-106.11,107.51-113.51,34.15-4.14,67.5-2.37,98.74,13.54,35.57,18.11,54.43,48.3,59.27,87,2.27,18.08,1.52,36.56,1.8,54.86.12,8.22-3.9,12.16-12.18,12.2q-41.16.19-82.32,0c-8.18,0-11.3-3.45-11.41-11.82-.14-9.77,0-19.55-.06-29.33-.08-20.09-7.51-29.3-24.13-30s-26.94,9.55-28.57,28.46c-.19,2.18-.14,4.39-.14,6.59,0,56.47-.12,112.94.13,169.41a63,63,0,0,0,3.35,20c4,11.41,14.21,16.53,27.84,15.26,11.54-1.07,19.3-7.73,20.56-20.12s.76-24.88,1-37.33c.17-10.69,3.31-14.11,14-14.15q38.6-.17,77.17,0c11,0,15.24,4.08,14.81,15.16-.8,20.94.29,42.34-3.74,62.7-9.62,48.54-40.85,77.56-89,87.93-38.57,8.3-76.5,6-112.19-12.12-35.89-18.26-55.62-48.92-60.8-87.88-3.21-24.09-2.4-48.72-3.06-73.12-.37-13.68-.06-27.38-.06-41.07Z"/></g></g></g></svg>