<svg width="196" height="38" viewBox="0 0 196 38" fill="none" xmlns="http://www.w3.org/2000/svg">
<g clip-path="url(#clip0_204_169)">
<path d="M191.847 13.2326V5.15662H196V26.8174H192.19V25.1085C192.079 25.1684 192.014 25.1797 191.984 25.2209C190.696 26.7199 188.989 27.1921 187.072 27.1734C183.315 27.1322 180.85 24.4752 180.297 21.0237C179.886 18.4379 180.198 15.9683 181.871 13.8209C183.296 11.9884 185.251 11.2576 187.552 11.3326C188.362 11.3425 189.162 11.5163 189.9 11.8431C190.639 12.17 191.302 12.643 191.847 13.2326ZM184.226 19.2286C184.321 19.8616 184.46 20.4876 184.641 21.1024C185.14 22.474 186.123 23.3509 187.64 23.5158C189.294 23.6919 190.608 23.0998 191.374 21.612C191.782 20.8742 191.996 20.0478 191.996 19.208C191.996 18.3682 191.782 17.5418 191.374 16.804C191.118 16.3196 190.752 15.8993 190.305 15.575C189.859 15.2507 189.343 15.031 188.796 14.9327C188.25 14.8343 187.688 14.86 187.154 15.0076C186.619 15.1553 186.126 15.421 185.712 15.7846C184.679 16.7028 184.336 17.9057 184.245 19.2399L184.226 19.2286Z" fill="black"/>
<path d="M54.49 11.6848H58.3005V13.4274C58.4086 13.3488 58.5116 13.2637 58.6091 13.1726C59.9009 11.7223 61.5966 11.2988 63.4675 11.325C67.339 11.415 69.6443 14.1394 70.1892 17.4298C70.6122 20.0081 70.3073 22.4815 68.665 24.6438C67.2742 26.4538 65.3689 27.2034 63.0979 27.1734C62.2646 27.1769 61.4397 27.0094 60.676 26.6816C59.9123 26.3538 59.2265 25.8729 58.6625 25.2696V32.8509H54.49V11.6848ZM66.2339 19.2248C66.14 18.5909 65.9986 17.9646 65.811 17.3511C65.2394 15.8521 64.1496 15.0051 62.492 14.9452C61.78 14.8852 61.0668 15.0455 60.452 15.4036C59.8371 15.7617 59.3514 16.2998 59.0626 16.9426C58.6784 17.6747 58.4824 18.4882 58.4917 19.3119C58.501 20.1357 58.7153 20.9447 59.1159 21.6682C59.3765 22.1564 59.7475 22.5792 60.2004 22.9041C60.6533 23.2289 61.176 23.4472 61.7282 23.5421C62.2804 23.6369 62.8474 23.6058 63.3854 23.4512C63.9235 23.2965 64.4183 23.0225 64.8317 22.6501C65.8186 21.7357 66.1539 20.544 66.2339 19.2248Z" fill="black"/>
<path d="M122.023 26.8249H117.877V5.14911H122.008V12.9964C122.362 12.6966 122.602 12.4606 122.873 12.2469C123.894 11.5704 125.111 11.2378 126.341 11.2988C127.635 11.2503 128.906 11.645 129.938 12.4156C130.577 12.9227 131.092 13.5659 131.442 14.2968C131.793 15.0277 131.97 15.8273 131.961 16.6353C132.037 19.9744 131.988 23.3172 131.988 26.6562C131.981 26.7111 131.968 26.7652 131.95 26.8174H127.842V26.3152C127.842 23.5095 127.842 20.7039 127.842 17.8982C127.848 17.6718 127.839 17.4452 127.815 17.2199C127.575 15.5897 126.725 14.8327 125.171 14.844C123.414 14.844 122.279 15.8108 122.088 17.441C122.047 17.7956 122.026 18.1522 122.027 18.5091C122.027 21.0674 122.027 23.6295 122.027 26.1953L122.023 26.8249Z" fill="black"/>
<path d="M165.695 17.0288C165.783 16.5833 165.701 16.1217 165.465 15.7319C165.229 15.3421 164.855 15.0514 164.415 14.9152C163.534 14.619 162.583 14.5929 161.687 14.8402C161.256 14.9401 160.868 15.1677 160.573 15.4921C160.279 15.8166 160.093 16.2222 160.04 16.654L156.074 15.9345C156.222 15.0073 156.625 14.1376 157.24 13.4199C158.126 12.421 159.339 11.7581 160.669 11.5461C162.547 11.1357 164.503 11.2408 166.324 11.8497C167.298 12.161 168.147 12.7671 168.75 13.5815C169.353 14.3959 169.679 15.3768 169.681 16.3842C169.727 18.4079 169.681 20.4353 169.7 22.4627C169.7 23.6207 169.799 23.7331 170.954 23.8793V26.8773C169.346 27.4694 167.482 26.7949 166.358 25.1947C165.315 26.2758 163.911 26.9504 162.403 27.0947C160.985 27.2446 159.576 27.2483 158.211 26.6824C157.481 26.4097 156.848 25.9338 156.389 25.3129C155.929 24.692 155.664 23.9529 155.624 23.186C155.514 22.3925 155.641 21.5848 155.991 20.8613C156.34 20.1379 156.896 19.5302 157.59 19.1124C158.84 18.2954 160.258 17.9619 161.717 17.7183C162.971 17.5085 164.224 17.3173 165.474 17.115C165.55 17.0914 165.624 17.0626 165.695 17.0288ZM165.695 19.9818C164.777 20.1467 163.855 20.2929 162.94 20.4765C162.181 20.6185 161.43 20.8025 160.692 21.0274C160.351 21.1168 160.056 21.3281 159.865 21.6198C159.674 21.9116 159.601 22.2629 159.659 22.6051C159.705 23.2909 160.128 23.7294 160.909 23.913C161.07 23.9504 161.233 23.9767 161.397 23.9917C164.293 24.2353 166.012 22.6538 165.684 19.9818H165.695Z" fill="black"/>
<path d="M87.188 11.6923H90.9794V13.3C91.0594 13.3 91.1052 13.3 91.1128 13.3C92.2559 11.6998 93.9287 11.2913 95.7654 11.3363C96.5221 11.3518 97.2711 11.4885 97.9831 11.741C99.835 12.4231 100.78 13.8659 101.134 15.7396C101.235 16.2648 101.286 16.798 101.287 17.3323C101.287 20.3304 101.287 23.3284 101.287 26.3264C101.287 26.4876 101.287 26.645 101.264 26.8248H97.1067V26.2552C97.1067 23.4633 97.1333 20.6751 97.0876 17.8832C97.0675 17.2255 96.9268 16.5767 96.6723 15.9682C96.3789 15.2524 95.6968 14.9376 94.9271 14.8739C93.5705 14.754 92.3512 15.0388 91.7186 16.373C91.4661 16.9335 91.3362 17.54 91.3376 18.153C91.2957 20.8625 91.3376 23.572 91.3376 26.2777V26.8323H87.188V11.6923Z" fill="black"/>
<path d="M81.0264 11.6923H85.1798V26.8136H81.3693V25.1984C81.2855 25.1984 81.2397 25.1984 81.2283 25.1984C80.1309 26.7349 78.5343 27.1846 76.7358 27.1846C75.4878 27.2396 74.258 26.8748 73.2492 26.1503C72.0184 25.2171 71.462 23.9355 71.2563 22.4852C71.1859 21.9546 71.1515 21.42 71.1534 20.885C71.1534 18.0144 71.1534 15.1438 71.1534 12.2657V11.6998H75.3221V12.2732C75.3221 15.0463 75.3221 17.8195 75.3221 20.5927C75.3263 21.0782 75.3903 21.5614 75.5126 22.0317C75.6279 22.4934 75.8975 22.9036 76.2783 23.1965C76.659 23.4894 77.1288 23.648 77.6122 23.6469C79.8489 23.7406 81.0073 22.6126 81.0187 20.2741C81.0187 17.6171 81.0187 14.9564 81.0187 12.2956L81.0264 11.6923Z" fill="black"/>
<path d="M150.792 17.2386C150.663 16.7341 150.401 16.2714 150.035 15.8962C149.668 15.521 149.208 15.2462 148.7 15.0988C147.933 14.838 147.094 14.8664 146.347 15.1786C145.599 15.4908 144.996 16.0646 144.654 16.7889C144.276 17.5498 144.077 18.3848 144.073 19.2316C144.069 20.0785 144.26 20.9153 144.631 21.6795C145.256 23.0473 146.429 23.6319 147.923 23.5345C149.348 23.4446 150.312 22.7026 150.796 21.286L154.961 21.968C154.847 22.3428 154.774 22.6388 154.649 22.9312C153.475 25.5882 151.353 26.9223 148.46 27.1546C146.587 27.3722 144.698 26.8878 143.171 25.798C140.725 24.0029 139.776 21.5183 139.967 18.6028C140 17.5898 140.242 16.5941 140.677 15.6753C141.112 14.7564 141.731 13.9335 142.497 13.2559C143.263 12.5782 144.161 12.0599 145.136 11.732C146.111 11.404 147.143 11.2733 148.171 11.3475C149.462 11.3816 150.725 11.732 151.844 12.3669C152.624 12.8202 153.303 13.4246 153.839 14.1435C154.375 14.8624 154.756 15.6808 154.961 16.5491L150.792 17.2386Z" fill="black"/>
<path d="M117.058 16.5528L112.97 17.2386C112.835 16.7199 112.561 16.2461 112.177 15.8665C111.793 15.4869 111.313 15.2153 110.786 15.0801C109.964 14.8222 109.071 14.8926 108.3 15.276C107.53 15.6595 106.943 16.3253 106.667 17.13C106.05 18.8164 106.069 20.5027 107.048 22.0917C107.768 23.2609 108.919 23.6544 110.238 23.527C110.829 23.4947 111.397 23.289 111.868 22.9363C112.34 22.5836 112.693 22.1002 112.882 21.5483L112.985 21.2822C113.667 21.3872 114.345 21.4921 115.024 21.6045C115.702 21.7169 116.384 21.8369 117.108 21.9793C116.97 22.7932 116.638 23.5636 116.14 24.2278C114.81 26.1016 112.939 27.0122 110.657 27.1771C108.374 27.342 106.385 26.8286 104.709 25.3033C102.67 23.4521 101.927 21.0986 102.167 18.4379C102.226 17.3192 102.538 16.2275 103.08 15.2422C103.621 14.2568 104.38 13.4026 105.299 12.7416C106.753 11.7018 108.536 11.2037 110.329 11.3363C111.468 11.3708 112.587 11.6442 113.61 12.1382C114.425 12.5351 115.147 13.093 115.733 13.7772C116.318 14.4614 116.754 15.257 117.013 16.1144C117.039 16.1912 117.058 16.2702 117.07 16.3505C117.073 16.4181 117.069 16.4859 117.058 16.5528Z" fill="black"/>
<path d="M171.739 26.8061V11.7073H175.549V13.4049C176.837 11.8834 178.495 11.4225 180.408 11.5611V15.3649C179.859 15.3649 179.329 15.3349 178.807 15.3649C178.165 15.3906 177.55 15.6253 177.058 16.0323C176.566 16.4393 176.226 16.9955 176.09 17.6134C175.963 18.1479 175.895 18.6945 175.888 19.2436C175.869 21.7582 175.888 24.2728 175.888 26.8211L171.739 26.8061Z" fill="black"/>
<path d="M28.8227 9.65738C30.3478 11.1566 31.483 12.9952 32.1324 15.0174C32.7817 17.0397 32.9261 19.186 32.5532 21.2747L37.8879 16.0282C38.1208 15.7995 38.3056 15.5279 38.4318 15.2289C38.5579 14.9298 38.6228 14.6093 38.6228 14.2856C38.6228 13.9619 38.5579 13.6413 38.4318 13.3423C38.3056 13.0433 38.1208 12.7717 37.8879 12.543L25.9115 0.723261C25.6786 0.494032 25.4021 0.312184 25.0978 0.188114C24.7934 0.0640436 24.4672 0.000183105 24.1377 0.000183105C23.8083 0.000183105 23.482 0.0640436 23.1777 0.188114C22.8733 0.312184 22.5968 0.494032 22.3639 0.723261L16.9988 5.99604C19.1238 5.62646 21.308 5.76629 23.3663 6.40366C25.4247 7.04103 27.2964 8.15715 28.8227 9.65738Z" fill="black"/>
<path d="M9.81942 28.3463C8.29438 26.8471 7.15912 25.0085 6.50975 22.9863C5.86039 20.964 5.71605 18.8177 6.08895 16.729L0.754267 21.9755C0.521187 22.2045 0.336285 22.4765 0.210131 22.7758C0.0839762 23.0751 0.019043 23.396 0.019043 23.72C0.019043 24.044 0.0839762 24.3649 0.210131 24.6642C0.336285 24.9635 0.521187 25.2355 0.754267 25.4645L12.7421 37.2805C12.9746 37.5096 13.2508 37.6913 13.5548 37.8154C13.8589 37.9394 14.1848 38.0032 14.5139 38.0032C14.8431 38.0032 15.169 37.9394 15.4731 37.8154C15.7771 37.6913 16.0533 37.5096 16.2858 37.2805L21.6205 32.0339C19.4969 32.3964 17.3158 32.2505 15.2617 31.6087C13.2076 30.9668 11.3408 29.8478 9.81942 28.3463Z" fill="black"/>
</g>
<defs>
<clipPath id="clip0_204_169">
<rect width="196" height="38" fill="white"/>
</clipPath>
</defs>
</svg>
